<svg width="28" height="28" viewBox="0 0 28 28" fill="none" xmlns="http://www.w3.org/2000/svg">
<path d="M23.6262 15.0547C23.6371 14.7878 23.6435 14.5196 23.6435 14.2502C23.6435 12.3328 23.3661 10.476 22.8387 8.77201H25.9613C26.7323 10.4396 27.1633 12.2954 27.1633 14.2502C27.1633 14.5203 27.1551 14.7886 27.1386 15.0547H23.6262ZM24.8175 21.7204H22.0744C22.9443 19.847 23.4702 17.6993 23.6069 15.4377H27.1096C26.8996 17.7583 26.082 19.906 24.8175 21.7204ZM17.734 26.8232C18.8904 26.1441 19.9512 25.1391 20.8598 23.8412C21.2399 23.2978 21.5838 22.7161 21.8898 22.1033H24.5411C22.8612 24.3385 20.4832 26.0197 17.734 26.8232ZM15.2679 27.2927C15.9403 26.6478 16.5483 25.4564 17.04 23.7854C17.1949 23.2586 17.3351 22.6957 17.4608 22.1034H21.4566C20.1062 24.7225 18.0987 26.6016 15.7876 27.2334C15.6153 27.256 15.4424 27.2765 15.2679 27.2927ZM14.5711 27.3365C14.4034 27.3428 14.2355 27.3474 14.066 27.3474C13.897 27.3474 13.7285 27.3428 13.5608 27.3365C12.7878 26.9415 12.0423 25.6565 11.4599 23.677C11.3144 23.1832 11.182 22.6568 11.0631 22.1033H17.0693C16.95 22.6568 16.8179 23.1832 16.6725 23.677C16.0901 25.6565 15.3446 26.9415 14.5711 27.3365ZM12.3445 27.2334C10.0334 26.6016 8.02619 24.7225 6.67562 22.1033H10.6712C10.7969 22.6957 10.9371 23.2587 11.0923 23.7854C11.5837 25.4564 12.1916 26.6478 12.8644 27.2927C12.69 27.2765 12.5167 27.256 12.3445 27.2334ZM3.59085 22.1033H6.24218C6.54828 22.7161 6.89205 23.2978 7.2722 23.8412C8.18081 25.1391 9.2416 26.1441 10.398 26.8232C7.64916 26.0198 5.27106 24.3385 3.59085 22.1033ZM1.0228 15.4377H4.52522C4.66177 17.6993 5.1881 19.847 6.05758 21.7204H3.31441C2.04999 19.906 1.23239 17.7583 1.0228 15.4377ZM0.96881 14.2502C0.96881 12.2954 1.39984 10.4396 2.17112 8.77201H5.29329C4.76602 10.4759 4.48879 12.3328 4.48879 14.2502C4.48879 14.5196 4.49487 14.7878 4.5058 15.0547H0.993526C0.977175 14.7886 0.96881 14.5203 0.96881 14.2502ZM10.4026 1.67439C9.24443 2.35344 8.1823 3.35957 7.2722 4.65898C6.49954 5.76308 5.87676 7.02294 5.41753 8.38907H2.35571C3.97487 5.16696 6.88504 2.70088 10.4026 1.67439ZM12.8637 1.20841C12.191 1.85328 11.5837 3.04425 11.0923 4.71498C10.7718 5.80294 10.5135 7.04417 10.3217 8.38907H5.82667C7.08719 4.74229 9.48593 2.04572 12.3502 1.26524C12.5209 1.2427 12.6921 1.22378 12.8637 1.20841ZM13.5626 1.16289C13.7296 1.15653 13.8973 1.15262 14.066 1.15262C14.2348 1.15262 14.4023 1.15653 14.5698 1.16289C15.3435 1.55675 16.0894 2.8424 16.6725 4.82304C16.9835 5.87992 17.2356 7.08399 17.4234 8.38907H10.7087C10.8968 7.08399 11.1488 5.87992 11.4599 4.82304C12.0427 2.8424 12.7889 1.55675 13.5626 1.16289ZM15.782 1.26521C18.6465 2.04572 21.0448 4.74229 22.3057 8.38907H17.8103C17.6189 7.04413 17.3602 5.80294 17.04 4.71502C16.5483 3.04425 15.9411 1.85328 15.2687 1.20838C15.4406 1.22393 15.6118 1.24264 15.782 1.26521ZM18.1965 15.0547C18.201 14.7878 18.2035 14.5196 18.2035 14.2502C18.2035 12.332 18.086 10.4746 17.8628 8.77201H22.4324C22.9636 10.4416 23.2605 12.2971 23.2605 14.2502C23.2605 14.5203 23.2541 14.7886 23.2428 15.0547L18.1965 15.0547ZM18.1879 15.4377H23.2231C23.079 17.7548 22.5172 19.901 21.6466 21.7204H17.5395C17.9076 19.8494 18.13 17.701 18.1879 15.4377ZM10.3274 15.4377H17.805C17.7464 17.7067 17.5212 19.8566 17.1488 21.7204H10.9832C10.6112 19.8566 10.3857 17.7067 10.3274 15.4377ZM10.3119 14.2502C10.3119 12.3293 10.4306 10.471 10.6556 8.77201H17.4766C17.7018 10.471 17.8205 12.3293 17.8205 14.2502C17.8205 14.5196 17.8177 14.7878 17.8131 15.0547H10.3189C10.3143 14.7878 10.3119 14.5196 10.3119 14.2502ZM9.94405 15.4377C10.002 17.701 10.2246 19.8494 10.5929 21.7204H6.48536C5.61522 19.901 5.05335 17.7548 4.90886 15.4377H9.94405ZM9.93593 15.0547H4.88916C4.87823 14.7886 4.87187 14.5203 4.87187 14.2502C4.87187 12.2971 5.1684 10.4417 5.70001 8.77201H10.2692C10.0461 10.4746 9.92891 12.332 9.92891 14.2502C9.92891 14.5196 9.93133 14.7878 9.93593 15.0547ZM25.7763 8.38907H22.7144C22.2552 7.02294 21.6325 5.76311 20.8598 4.65895C19.9501 3.35954 18.8875 2.35344 17.7294 1.67435C21.2473 2.70092 24.1571 5.16699 25.7763 8.38907ZM26.4802 8.76147C26.4247 8.63645 26.3672 8.51231 26.3079 8.38907C25.6521 7.02187 24.7624 5.76094 23.6587 4.65746C21.3258 2.32454 18.2928 0.946423 15.0332 0.718102C14.7128 0.673007 14.3896 0.650356 14.066 0.650314C13.7408 0.650314 13.4179 0.673267 13.0988 0.718067C9.83952 0.946423 6.80633 2.32454 4.47327 4.65746C3.36952 5.76094 2.47995 7.02187 1.82433 8.38907C1.76482 8.5122 1.70743 8.63635 1.65218 8.76147C0.897116 10.4675 0.5 12.3282 0.5 14.2502C0.5 16.975 1.29817 19.5773 2.7839 21.7902C2.85478 21.8956 2.92717 22 3.00106 22.1034C3.44272 22.723 3.93517 23.3049 4.4733 23.8429C6.80636 26.1759 9.83956 27.554 13.0992 27.7819C13.4195 27.827 13.7426 27.8497 14.066 27.8497C14.3912 27.8497 14.7138 27.8267 15.0328 27.7819C18.2925 27.554 21.3258 26.1759 23.6588 23.8429C24.197 23.3049 24.6895 22.723 25.1311 22.1033C25.2052 22.0001 25.2777 21.8957 25.3485 21.7902C26.8338 19.5773 27.632 16.975 27.632 14.2502C27.632 12.3282 27.2353 10.4675 26.4802 8.76147Z" fill="#D93B00"/>
<path d="M13.1751 7.91023L13.402 12.5066C13.4494 13.4677 13.0464 14.3959 12.3127 15.0156C11.5181 15.6865 11.1134 16.7137 11.243 17.7475C11.628 20.8189 11.8972 24.813 11.8972 25.32C11.8972 26.1572 11.2208 26.836 10.3865 26.836C9.55225 26.836 8.87576 26.1572 8.87576 25.32C8.87576 24.8133 9.14473 20.8238 9.5292 17.7532C9.65814 16.7231 9.25642 15.6996 8.46758 15.0285L8.45189 15.0154C7.72302 14.3956 7.32345 13.4707 7.37071 12.5133L7.59782 7.91023C7.61096 7.64475 7.82929 7.43641 8.09394 7.43641C8.36844 7.43641 8.59085 7.65948 8.59085 7.93481V11.7685C8.59085 12.098 8.85685 12.3649 9.18525 12.3649C9.5135 12.3649 9.77968 12.098 9.77968 11.7685V8.04539C9.77968 7.70905 10.0513 7.43641 10.3865 7.43641C10.7218 7.43641 10.9935 7.70905 10.9935 8.04539V11.7685C10.9935 12.098 11.2595 12.3649 11.5879 12.3649C11.9161 12.3649 12.1823 12.098 12.1823 11.7685V7.93485C12.1823 7.65951 12.4047 7.43645 12.6791 7.43645C12.9437 7.43645 13.162 7.64475 13.1751 7.91023ZM18.7468 7.09263L18.7469 7.08627C18.7382 7.08627 18.7279 7.08938 18.719 7.0898C18.707 7.08911 18.6957 7.08627 18.6837 7.08627C18.6413 7.08627 18.6039 7.10193 18.5638 7.1095L18.5591 7.11044C18.4897 7.12395 18.4254 7.14514 18.3653 7.17853C17.5131 7.57914 16.0659 9.64025 15.5058 13.9507C15.3234 15.3533 15.3802 16.5395 15.4812 17.3711C15.5772 18.161 16.0257 18.8638 16.6888 19.3002C17.0107 19.5121 17.1937 19.8817 17.1677 20.2671L16.847 25.4941C16.7948 26.2894 17.4885 26.952 18.3097 26.8189C18.9235 26.7192 19.3539 26.15 19.3539 25.5261V7.75855C19.3539 7.40896 19.0868 7.12502 18.7468 7.09263Z" fill="#D93B00"/>
</svg>
