<svg width="19" height="20" viewBox="0 0 19 20" fill="none" xmlns="http://www.w3.org/2000/svg">
<path d="M18.1257 0.876953H0.875671C0.460828 0.876953 0.125671 1.21211 0.125671 1.62695V18.877C0.125671 19.2918 0.460828 19.627 0.875671 19.627H18.1257C18.5405 19.627 18.8757 19.2918 18.8757 18.877V1.62695C18.8757 1.21211 18.5405 0.876953 18.1257 0.876953ZM15.96 6.34961H14.4624C13.2882 6.34961 13.0608 6.90742 13.0608 7.72773V9.53477H15.864L15.4983 12.3637H13.0608V19.627H10.1382V12.366H7.69364V9.53477H10.1382V7.44883C10.1382 5.02773 11.6171 3.7082 13.778 3.7082C14.814 3.7082 15.7022 3.78555 15.9624 3.8207V6.34961H15.96Z" fill="#2E1B14" fill-opacity="0.62"/>
</svg>
