<svg width="23" height="22" viewBox="0 0 23 22" fill="none" xmlns="http://www.w3.org/2000/svg">
<path d="M11.5 5.75431C8.45978 5.75431 6.00621 8.20788 6.00621 11.2481C6.00621 14.2882 8.45978 16.7418 11.5 16.7418C14.5401 16.7418 16.9937 14.2882 16.9937 11.2481C16.9937 8.20788 14.5401 5.75431 11.5 5.75431ZM11.5 14.8186C9.53389 14.8186 7.92943 13.2141 7.92943 11.2481C7.92943 9.28199 9.53389 7.67753 11.5 7.67753C13.466 7.67753 15.0705 9.28199 15.0705 11.2481C15.0705 13.2141 13.466 14.8186 11.5 14.8186ZM17.2187 4.24896C16.5089 4.24896 15.9357 4.82217 15.9357 5.53199C15.9357 6.24181 16.5089 6.81503 17.2187 6.81503C17.9285 6.81503 18.5018 6.24449 18.5018 5.53199C18.502 5.36344 18.4689 5.19651 18.4045 5.04074C18.3401 4.88498 18.2456 4.74346 18.1264 4.62428C18.0072 4.50509 17.8657 4.41059 17.71 4.34619C17.5542 4.28179 17.3873 4.24874 17.2187 4.24896ZM22.2089 11.2481C22.2089 9.76949 22.2223 8.30431 22.1393 6.82842C22.0562 5.11413 21.6651 3.59271 20.4116 2.33913C19.1553 1.08288 17.6366 0.694491 15.9223 0.611455C14.4437 0.528419 12.9785 0.541812 11.5026 0.541812C10.0241 0.541812 8.55889 0.528419 7.083 0.611455C5.36871 0.694491 3.84728 1.08556 2.59371 2.33913C1.33746 3.59538 0.949069 5.11413 0.866033 6.82842C0.782997 8.30699 0.79639 9.77217 0.79639 11.2481C0.79639 12.724 0.782997 14.1918 0.866033 15.6677C0.949069 17.382 1.34014 18.9034 2.59371 20.157C3.84996 21.4132 5.36871 21.8016 7.083 21.8847C8.56157 21.9677 10.0267 21.9543 11.5026 21.9543C12.9812 21.9543 14.4464 21.9677 15.9223 21.8847C17.6366 21.8016 19.158 21.4106 20.4116 20.157C21.6678 18.9007 22.0562 17.382 22.1393 15.6677C22.225 14.1918 22.2089 12.7266 22.2089 11.2481ZM19.8517 17.5641C19.6562 18.0516 19.4205 18.4159 19.0428 18.7909C18.6651 19.1686 18.3035 19.4043 17.816 19.5998C16.4071 20.1597 13.0616 20.0338 11.5 20.0338C9.93836 20.0338 6.59014 20.1597 5.18121 19.6025C4.69371 19.407 4.32943 19.1713 3.95443 18.7936C3.57675 18.4159 3.34103 18.0543 3.1455 17.5668C2.58835 16.1552 2.71425 12.8097 2.71425 11.2481C2.71425 9.68645 2.58835 6.33824 3.1455 4.92931C3.34103 4.44181 3.57675 4.07753 3.95443 3.70253C4.3321 3.32753 4.69371 3.08913 5.18121 2.8936C6.59014 2.33646 9.93836 2.46235 11.5 2.46235C13.0616 2.46235 16.4098 2.33646 17.8187 2.8936C18.3062 3.08913 18.6705 3.32485 19.0455 3.70253C19.4232 4.08021 19.6589 4.44181 19.8544 4.92931C20.4116 6.33824 20.2857 9.68645 20.2857 11.2481C20.2857 12.8097 20.4116 16.1552 19.8517 17.5641Z" fill="#2E1B14" fill-opacity="0.62"/>
</svg>
