<svg width="49" height="49" viewBox="0 0 49 49" fill="none" xmlns="http://www.w3.org/2000/svg">
<path d="M41.751 5.50195H7.25098C6.42129 5.50195 5.75098 6.17227 5.75098 7.00195V41.502C5.75098 42.3316 6.42129 43.002 7.25098 43.002H41.751C42.5807 43.002 43.251 42.3316 43.251 41.502V7.00195C43.251 6.17227 42.5807 5.50195 41.751 5.50195ZM37.4197 16.4473H34.4244C32.076 16.4473 31.6213 17.5629 31.6213 19.2035V22.8176H37.2275L36.4963 28.4754H31.6213V43.002H25.776V28.4801H20.8869V22.8176H25.776V18.6457C25.776 13.8035 28.7338 11.1645 33.0557 11.1645C35.1275 11.1645 36.9041 11.3191 37.4244 11.3895V16.4473H37.4197Z" fill="#281E1B"/>
</svg>
