<svg width="49" height="49" viewBox="0 0 49 49" fill="none" xmlns="http://www.w3.org/2000/svg">
<path d="M24.4996 13.2567C18.4192 13.2567 13.5121 18.1638 13.5121 24.2442C13.5121 30.3245 18.4192 35.2317 24.4996 35.2317C30.5799 35.2317 35.4871 30.3245 35.4871 24.2442C35.4871 18.1638 30.5799 13.2567 24.4996 13.2567ZM24.4996 31.3852C20.5674 31.3852 17.3585 28.1763 17.3585 24.2442C17.3585 20.312 20.5674 17.1031 24.4996 17.1031C28.4317 17.1031 31.6406 20.312 31.6406 24.2442C31.6406 28.1763 28.4317 31.3852 24.4996 31.3852ZM35.9371 10.246C34.5174 10.246 33.371 11.3924 33.371 12.812C33.371 14.2317 34.5174 15.3781 35.9371 15.3781C37.3567 15.3781 38.5031 14.237 38.5031 12.812C38.5036 12.4749 38.4375 12.1411 38.3087 11.8295C38.1799 11.518 37.9909 11.235 37.7525 10.9966C37.5141 10.7582 37.2311 10.5692 36.9196 10.4404C36.608 10.3116 36.2742 10.2455 35.9371 10.246ZM45.9174 24.2442C45.9174 21.287 45.9442 18.3567 45.7781 15.4049C45.6121 11.9763 44.8299 8.93346 42.3228 6.42631C39.8103 3.91381 36.7728 3.13703 33.3442 2.97096C30.3871 2.80489 27.4567 2.83167 24.5049 2.83167C21.5478 2.83167 18.6174 2.80489 15.6656 2.97096C12.2371 3.13703 9.1942 3.91917 6.68706 6.42631C4.17456 8.93881 3.39777 11.9763 3.2317 15.4049C3.06563 18.362 3.09241 21.2924 3.09241 24.2442C3.09241 27.196 3.06563 30.1317 3.2317 33.0835C3.39777 36.512 4.17991 39.5549 6.68706 42.062C9.19956 44.5745 12.2371 45.3513 15.6656 45.5174C18.6228 45.6835 21.5531 45.6567 24.5049 45.6567C27.4621 45.6567 30.3924 45.6835 33.3442 45.5174C36.7728 45.3513 39.8156 44.5692 42.3228 42.062C44.8353 39.5495 45.6121 36.512 45.7781 33.0835C45.9496 30.1317 45.9174 27.2013 45.9174 24.2442ZM41.2031 36.8763C40.8121 37.8513 40.3406 38.5799 39.5853 39.3299C38.8299 40.0852 38.1067 40.5567 37.1317 40.9477C34.3138 42.0674 27.6228 41.8156 24.4996 41.8156C21.3763 41.8156 14.6799 42.0674 11.8621 40.9531C10.8871 40.562 10.1585 40.0906 9.40849 39.3352C8.65313 38.5799 8.1817 37.8567 7.79063 36.8817C6.67634 34.0585 6.92813 27.3674 6.92813 24.2442C6.92813 21.121 6.67634 14.4245 7.79063 11.6067C8.1817 10.6317 8.65313 9.9031 9.40849 9.1531C10.1638 8.4031 10.8871 7.92631 11.8621 7.53524C14.6799 6.42096 21.3763 6.67274 24.4996 6.67274C27.6228 6.67274 34.3192 6.42096 37.1371 7.53524C38.1121 7.92631 38.8406 8.39774 39.5906 9.1531C40.346 9.90846 40.8174 10.6317 41.2085 11.6067C42.3228 14.4245 42.071 21.121 42.071 24.2442C42.071 27.3674 42.3228 34.0585 41.2031 36.8763Z" fill="#281E1B"/>
</svg>
